# xmcd
#
# Track frame offsets: 
#        150
#        16232
#        42942
#        61180
#        83848
#        109284
#        129141
#        146331
#        169146
#        193159
#        214099
#        237141
#        263629
#        278421
#        295631
#
# Disc length: 4252 seconds
#
# Revision: 0
# Processed by: cddbd v1.5.2PL0 Copyright (c) Steve Scherf et al.
# Submitted via: ExactAudioCopyFreeDBPlugin 1.0
#
DISCID=c8109a0f
DTITLE=Funky B and the Kings of Shuffle - GET YOUR KICKS
DYEAR=2016
DGENRE=Blues
TTITLE0=Train wreck
TTITLE1=Funky 12
TTITLE2=I'll drink that bottle down
TTITLE3=Why do you treat me like you do
TTITLE4=True greatness
TTITLE5=Gotcha (theme from Starsky and Hutch)
TTITLE6=The blues is fallin' down like rain on me
TTITLE7=Get your kicks downtown
TTITLE8=We've got to move
TTITLE9=Too lazy
TTITLE10=Rotten chicken feather
TTITLE11=The return of the kings
TTITLE12=I love the life I live
TTITLE13=Home of the blues
TTITLE14=Those good times
EXTD=
EXTT0=
EXTT1=
EXTT2=
EXTT3=
EXTT4=
EXTT5=
EXTT6=
EXTT7=
EXTT8=
EXTT9=
EXTT10=
EXTT11=
EXTT12=
EXTT13=
EXTT14=
PLAYORDER=
